<svg width="16" height="22" viewBox="0 0 16 22" fill="none" xmlns="http://www.w3.org/2000/svg">
<path d="M10.85 15C10.6167 15 10.4167 14.9167 10.25 14.75C10.0833 14.5833 10 14.3833 10 14.15V10.85C10 10.6167 10.0833 10.4167 10.25 10.25C10.4167 10.0833 10.6167 10 10.85 10H11V9C11 8.45 11.1958 7.97917 11.5875 7.5875C11.9792 7.19583 12.45 7 13 7C13.55 7 14.0208 7.19583 14.4125 7.5875C14.8042 7.97917 15 8.45 15 9V10H15.15C15.3833 10 15.5833 10.0833 15.75 10.25C15.9167 10.4167 16 10.6167 16 10.85V14.15C16 14.3833 15.9167 14.5833 15.75 14.75C15.5833 14.9167 15.3833 15 15.15 15H10.85ZM12 10H14V9C14 8.71667 13.9042 8.47917 13.7125 8.2875C13.5208 8.09583 13.2833 8 13 8C12.7167 8 12.4792 8.09583 12.2875 8.2875C12.0958 8.47917 12 8.71667 12 9V10ZM2 22C1.45 22 0.979167 21.8042 0.5875 21.4125C0.195833 21.0208 0 20.55 0 20V2C0 1.45 0.195833 0.979167 0.5875 0.5875C0.979167 0.195833 1.45 0 2 0H12C12.55 0 13.0208 0.195833 13.4125 0.5875C13.8042 0.979167 14 1.45 14 2V6H12V5H2V17H12V16H14V20C14 20.55 13.8042 21.0208 13.4125 21.4125C13.0208 21.8042 12.55 22 12 22H2ZM2 19V20H12V19H2ZM2 3H12V2H2V3Z" fill="#A39C9C"/>
</svg>
