<svg width="38" height="22" viewBox="0 0 38 22" fill="none" xmlns="http://www.w3.org/2000/svg">
<path d="M19.4581 0C19.8831 0.0496711 20.3114 0.0905776 20.7331 0.149017C21.9286 0.317514 23.0118 0.629184 23.9891 1.06844C24.9151 1.4853 25.8411 1.90119 26.7672 2.31804C26.8598 2.35895 26.9573 2.39791 27.1062 2.46024C27.1062 2.06871 27.0896 1.71321 27.1095 1.35869C27.1442 0.760668 28.057 0.383741 29.0194 0.560029C29.6015 0.667166 30.0033 0.967151 30.0099 1.35187C30.0232 2.31122 30.0248 3.27156 30.0083 4.23092C30.0033 4.57376 29.704 4.83088 29.1782 4.97893C28.6176 5.13671 28.0917 5.07535 27.6089 4.85815C26.2099 4.22897 24.8175 3.59394 23.4103 2.97158C22.7224 2.6677 22.056 2.32876 21.2936 2.10475C19.1075 1.4629 16.9843 1.6012 15.038 2.46511C11.7819 3.91243 8.54909 5.37728 5.31295 6.83823C3.72379 7.55605 2.93171 8.51151 2.93006 9.69196C2.92841 12.0558 2.92841 14.4186 2.93171 16.7815C2.93336 18.7645 5.4998 20.279 8.85337 20.28C15.3935 20.28 21.9336 20.2809 28.4737 20.28C31.8058 20.279 34.3788 18.7635 34.3838 16.7961C34.3888 14.4186 34.3904 12.0412 34.3838 9.66371C34.3805 8.53683 33.6496 7.60767 32.1646 6.88985C31.4569 6.54799 31.3395 6.02984 31.8802 5.63928C32.4044 5.2604 33.2941 5.21949 33.9902 5.5526C35.8588 6.4467 36.9287 7.60475 37.2347 9.01116C37.2446 9.05888 37.276 9.10563 37.2975 9.15238V17.3162C37.2743 17.3639 37.2429 17.4097 37.2313 17.4574C36.7204 19.4745 34.8667 20.8819 31.6718 21.6474C30.9211 21.8276 30.086 21.886 29.2889 22H8.02656C7.93395 21.9873 7.84135 21.9679 7.74709 21.962C3.45922 21.6844 0.0610055 19.5018 0.0279258 16.9607C-0.00514131 14.4839 -0.0150577 12.0051 0.0328966 9.52833C0.0643109 7.9281 1.16563 6.585 3.30047 5.5974C6.66065 4.04392 10.0787 2.53232 13.4753 1.00611C14.3434 0.615548 15.3191 0.345758 16.3708 0.181155C16.8603 0.105187 17.3613 0.0594092 17.8574 0H19.4581Z" fill="black"/>
<path d="M15.7391 9.92578C16.733 9.92481 17.5581 10.4001 17.5647 10.9786C17.5714 11.5942 16.766 12.0724 15.7325 12.0685C14.7106 12.0646 13.9268 11.5942 13.9268 10.9864C13.9268 10.4069 14.7453 9.92773 15.7391 9.92578Z" fill="black"/>
<path d="M21.5781 9.92872C22.6 9.93066 23.4004 10.4069 23.3888 11.0079C23.3772 11.602 22.5868 12.0656 21.5797 12.0685C20.5594 12.0724 19.7524 11.6 19.7524 10.9991C19.7524 10.3952 20.5511 9.92677 21.5781 9.92872Z" fill="black"/>
<path d="M17.563 14.4434C17.553 15.0453 16.7378 15.5148 15.7208 15.5051C14.6972 15.4963 13.9068 15.0151 13.9266 14.4152C13.9481 13.8191 14.7386 13.3643 15.7506 13.3662C16.7742 13.3672 17.5729 13.8435 17.563 14.4434Z" fill="black"/>
<path d="M21.5514 13.3663C22.5766 13.3604 23.3836 13.8279 23.3886 14.4298C23.3919 15.0308 22.5898 15.5061 21.5695 15.5051C20.5608 15.5051 19.7687 15.0444 19.7522 14.4513C19.7357 13.8484 20.5278 13.3711 21.5514 13.3663Z" fill="black"/>
</svg>
