<svg width="28" height="23" viewBox="0 0 28 23" fill="none" xmlns="http://www.w3.org/2000/svg">
<path d="M3.43381 1.4375H1.7168V20.125C1.7168 20.5062 1.8977 20.8719 2.2197 21.1415C2.5417 21.411 2.97843 21.5625 3.43381 21.5625H25.755V20.125H3.43381V1.4375Z" fill="black"/>
<path d="M25.755 6.46875H19.7455V7.90625H22.8275L16.3115 13.3616L12.6285 10.2709C12.5487 10.2036 12.4537 10.1501 12.3491 10.1136C12.2445 10.0771 12.1323 10.0583 12.0189 10.0583C11.9056 10.0583 11.7934 10.0771 11.6888 10.1136C11.5842 10.1501 11.4892 10.2036 11.4094 10.2709L5.15088 15.5178L6.36137 16.5312L12.0189 11.7947L15.7019 14.8853C15.7817 14.9527 15.8767 15.0062 15.9813 15.0426C16.0859 15.0791 16.1981 15.0979 16.3115 15.0979C16.4248 15.0979 16.537 15.0791 16.6416 15.0426C16.7462 15.0062 16.8412 14.9527 16.921 14.8853L24.038 8.91969V11.5H25.755V6.46875Z" fill="black"/>
</svg>
