<svg width="7" height="7" viewBox="0 0 7 7" fill="none" xmlns="http://www.w3.org/2000/svg">
<path d="M2.79995 5.95158C2.79995 6.3168 3.11334 6.61287 3.49994 6.61287C3.88655 6.61287 4.19993 6.3168 4.19993 5.95158V3.96772H6.2999C6.6865 3.96772 6.99988 3.67166 6.99988 3.30643C6.99988 2.9412 6.6865 2.64514 6.2999 2.64514H4.19993V0.661273C4.19993 0.296044 3.88655 -1.50049e-05 3.49994 -1.50049e-05C3.11334 -1.50049e-05 2.79995 0.296044 2.79995 0.661273V2.64514H0.699988C0.313392 2.64514 0 2.9412 0 3.30643C0 3.67166 0.313399 3.96772 0.699988 3.96772H2.79995V5.95158Z" fill="#0F0F0F"/>
</svg>
