<svg width="34" height="33" viewBox="0 0 34 33" fill="none" xmlns="http://www.w3.org/2000/svg">
<path d="M16.9999 32.9789C7.62228 32.9789 0 25.5855 0 16.4894C0 7.3934 7.62228 0 16.9999 0C26.3775 0 33.9998 7.3934 33.9998 16.4894C33.9998 25.5855 26.3775 32.9789 16.9999 32.9789ZM16.9999 2.30085C8.93483 2.30085 2.37208 8.66654 2.37208 16.4894C2.37208 24.3123 8.93483 30.678 16.9999 30.678C25.065 30.678 31.6277 24.3123 31.6277 16.4894C31.6277 8.66654 25.065 2.30085 16.9999 2.30085Z" fill="#292D32"/>
<path d="M22.8663 22.5177C22.6607 22.5177 22.4552 22.4716 22.2654 22.3489L17.3631 19.5112C16.1454 18.8056 15.244 17.2564 15.244 15.8912V9.60223C15.244 8.97333 15.7817 8.4518 16.4301 8.4518C17.0785 8.4518 17.6161 8.97333 17.6161 9.60223V15.8912C17.6161 16.4434 18.0905 17.2564 18.5808 17.5325L23.4831 20.3702C24.0524 20.6923 24.2263 21.3979 23.8942 21.9501C23.657 22.3183 23.2617 22.5177 22.8663 22.5177Z" fill="#292D32"/>
</svg>
