<svg width="430" height="932" viewBox="0 0 430 932" fill="none" xmlns="http://www.w3.org/2000/svg">
<path d="M65.7719 931.889C44.8801 931.889 24.5839 931.78 4.29122 931.991C0.7241 932.028 0.00703454 931.286 0.0131982 927.812C0.143406 854.435 0.111734 781.057 0.111734 707.68C0.111734 473.57 0.126285 239.461 4.10634e-06 5.35224C-0.0023513 0.98535 1.00764 -0.0033657 5.48404 0.00093096C145.36 0.135187 285.236 0.133326 425.112 1.43705e-05C429.2 -0.00388163 430.002 0.782434 430 4.76986C429.877 312.256 429.877 619.743 430 927.23C430.002 931.217 429.2 932.005 425.112 932C305.531 931.863 185.95 931.889 65.7719 931.889Z" fill="white"/>
</svg>
