<svg width="15" height="21" viewBox="0 0 15 21" fill="none" xmlns="http://www.w3.org/2000/svg">
<path d="M6.64345 21C5.94708 20.9165 5.27855 20.7118 4.63788 20.386C3.99721 20.0603 3.3844 19.6301 2.79944 19.0955L3.96936 17.642C4.37326 17.9928 4.80153 18.2768 5.25418 18.494C5.70682 18.7112 6.16992 18.8616 6.64345 18.9451V21ZM8.31476 21V18.9451C9.76323 18.6945 10.961 17.9135 11.9081 16.602C12.8552 15.2906 13.3287 13.7661 13.3287 12.0286C13.3287 10.074 12.7611 8.41587 11.626 7.0543C10.4909 5.69272 9.10863 5.01193 7.47911 5.01193H7.31198L8.64902 6.61575L7.47911 8.01909L4.13649 4.00955L7.47911 0L8.64902 1.45346L7.35376 3.00716H7.47911C8.52368 3.00716 9.50209 3.24523 10.4143 3.72136C11.3266 4.19749 12.1205 4.84069 12.796 5.65095C13.4714 6.46122 14.0077 7.41348 14.4046 8.50776C14.8015 9.60203 15 10.7757 15 12.0286C15 14.3174 14.3663 16.3097 13.0989 18.0054C11.8315 19.7011 10.2368 20.6993 8.31476 21ZM1.58774 17.642C1.14206 16.9403 0.783426 16.2053 0.511838 15.4368C0.240251 14.6683 0.0696379 13.8663 0 13.031H1.71309C1.78273 13.599 1.90808 14.1545 2.08914 14.6975C2.2702 15.2405 2.50696 15.7542 2.79944 16.2387L1.58774 17.642ZM0 11.0263C0.0835655 10.1742 0.25766 9.35561 0.522284 8.57041C0.786908 7.7852 1.14206 7.06683 1.58774 6.41527L2.79944 7.81862C2.50696 8.3031 2.2702 8.81683 2.08914 9.35979C1.90808 9.90275 1.78273 10.4582 1.71309 11.0263H0Z" fill="black"/>
</svg>
