<svg width="39" height="37" viewBox="0 0 39 37" fill="none" xmlns="http://www.w3.org/2000/svg">
<path d="M7.5075 27.935C9.165 26.7325 11.0175 25.7844 13.065 25.0906C15.1125 24.3969 17.2575 24.05 19.5 24.05C21.7425 24.05 23.8875 24.3969 25.935 25.0906C27.9825 25.7844 29.835 26.7325 31.4925 27.935C32.63 26.6708 33.5156 25.2371 34.1494 23.6338C34.7831 22.0304 35.1 20.3192 35.1 18.5C35.1 14.3992 33.5806 10.9073 30.5419 8.02437C27.5031 5.14146 23.8225 3.7 19.5 3.7C15.1775 3.7 11.4969 5.14146 8.45813 8.02437C5.41937 10.9073 3.9 14.3992 3.9 18.5C3.9 20.3192 4.21688 22.0304 4.85063 23.6338C5.48438 25.2371 6.37 26.6708 7.5075 27.935ZM19.5 20.35C17.5825 20.35 15.9656 19.7256 14.6494 18.4769C13.3331 17.2281 12.675 15.6942 12.675 13.875C12.675 12.0558 13.3331 10.5219 14.6494 9.27312C15.9656 8.02437 17.5825 7.4 19.5 7.4C21.4175 7.4 23.0344 8.02437 24.3506 9.27312C25.6669 10.5219 26.325 12.0558 26.325 13.875C26.325 15.6942 25.6669 17.2281 24.3506 18.4769C23.0344 19.7256 21.4175 20.35 19.5 20.35ZM19.5 37C16.8025 37 14.2675 36.5144 11.895 35.5431C9.5225 34.5719 7.45875 33.2537 5.70375 31.5888C3.94875 29.9237 2.55937 27.9658 1.53562 25.715C0.511875 23.4642 0 21.0592 0 18.5C0 15.9408 0.511875 13.5358 1.53562 11.285C2.55937 9.03417 3.94875 7.07625 5.70375 5.41125C7.45875 3.74625 9.5225 2.42813 11.895 1.45687C14.2675 0.485625 16.8025 0 19.5 0C22.1975 0 24.7325 0.485625 27.105 1.45687C29.4775 2.42813 31.5412 3.74625 33.2962 5.41125C35.0513 7.07625 36.4406 9.03417 37.4644 11.285C38.4881 13.5358 39 15.9408 39 18.5C39 21.0592 38.4881 23.4642 37.4644 25.715C36.4406 27.9658 35.0513 29.9237 33.2962 31.5888C31.5412 33.2537 29.4775 34.5719 27.105 35.5431C24.7325 36.5144 22.1975 37 19.5 37ZM19.5 33.3C21.2225 33.3 22.8475 33.061 24.375 32.5831C25.9025 32.1052 27.3 31.4192 28.5675 30.525C27.3 29.6308 25.9025 28.9448 24.375 28.4669C22.8475 27.989 21.2225 27.75 19.5 27.75C17.7775 27.75 16.1525 27.989 14.625 28.4669C13.0975 28.9448 11.7 29.6308 10.4325 30.525C11.7 31.4192 13.0975 32.1052 14.625 32.5831C16.1525 33.061 17.7775 33.3 19.5 33.3ZM19.5 16.65C20.345 16.65 21.0437 16.3879 21.5962 15.8638C22.1487 15.3396 22.425 14.6767 22.425 13.875C22.425 13.0733 22.1487 12.4104 21.5962 11.8863C21.0437 11.3621 20.345 11.1 19.5 11.1C18.655 11.1 17.9562 11.3621 17.4037 11.8863C16.8512 12.4104 16.575 13.0733 16.575 13.875C16.575 14.6767 16.8512 15.3396 17.4037 15.8638C17.9562 16.3879 18.655 16.65 19.5 16.65Z" fill="black"/>
</svg>
