<svg width="30" height="30" viewBox="0 0 30 30" fill="none" xmlns="http://www.w3.org/2000/svg">
<path d="M15 0L28.575 8.1C29.025 8.375 29.375 8.75 29.625 9.225C29.875 9.7 30 10.2 30 10.725V27C30 27.825 29.7063 28.5313 29.1188 29.1188C28.5313 29.7063 27.825 30 27 30H3C2.175 30 1.46875 29.7063 0.88125 29.1188C0.29375 28.5313 0 27.825 0 27V10.725C0 10.2 0.125 9.7 0.375 9.225C0.625 8.75 0.975 8.375 1.425 8.1L15 0ZM15 17.475L26.7 10.5L15 3.525L3.3 10.5L15 17.475ZM15 21L3 13.8V27H27V13.8L15 21ZM15 27H27H3H15Z" fill="white" fill-opacity="0.82"/>
</svg>
