<svg width="50" height="50" viewBox="0 0 50 50" fill="none" xmlns="http://www.w3.org/2000/svg">
<path d="M12.1875 35.625C13.9583 34.2709 15.9375 33.2031 18.125 32.4219C20.3125 31.6406 22.6041 31.25 25 31.25C27.3958 31.25 29.6875 31.6406 31.875 32.4219C34.0625 33.2031 36.0416 34.2709 37.8125 35.625C39.0277 34.2014 39.9739 32.5868 40.651 30.7813C41.3281 28.9757 41.6666 27.0486 41.6666 25C41.6666 20.382 40.0434 16.4497 36.7968 13.2031C33.5503 9.95662 29.618 8.33335 25 8.33335C20.3819 8.33335 16.4496 9.95662 13.2031 13.2031C9.95656 16.4497 8.33329 20.382 8.33329 25C8.33329 27.0486 8.67183 28.9757 9.34892 30.7813C10.026 32.5868 10.9722 34.2014 12.1875 35.625ZM25 27.0834C22.9513 27.0834 21.2239 26.3802 19.8177 24.974C18.4114 23.5677 17.7083 21.8403 17.7083 19.7917C17.7083 17.7431 18.4114 16.0156 19.8177 14.6094C21.2239 13.2031 22.9513 12.5 25 12.5C27.0486 12.5 28.776 13.2031 30.1822 14.6094C31.5885 16.0156 32.2916 17.7431 32.2916 19.7917C32.2916 21.8403 31.5885 23.5677 30.1822 24.974C28.776 26.3802 27.0486 27.0834 25 27.0834ZM25 45.8334C22.118 45.8334 19.4097 45.2865 16.875 44.1927C14.3402 43.099 12.1354 41.6146 10.2604 39.7396C8.38538 37.8646 6.901 35.6597 5.80725 33.125C4.7135 30.5903 4.16663 27.882 4.16663 25C4.16663 22.1181 4.7135 19.4097 5.80725 16.875C6.901 14.3403 8.38538 12.1354 10.2604 10.2604C12.1354 8.38544 14.3402 6.90106 16.875 5.80731C19.4097 4.71356 22.118 4.16669 25 4.16669C27.8819 4.16669 30.5902 4.71356 33.125 5.80731C35.6597 6.90106 37.8645 8.38544 39.7395 10.2604C41.6145 12.1354 43.0989 14.3403 44.1927 16.875C45.2864 19.4097 45.8333 22.1181 45.8333 25C45.8333 27.882 45.2864 30.5903 44.1927 33.125C43.0989 35.6597 41.6145 37.8646 39.7395 39.7396C37.8645 41.6146 35.6597 43.099 33.125 44.1927C30.5902 45.2865 27.8819 45.8334 25 45.8334ZM25 41.6667C26.8402 41.6667 28.5763 41.3976 30.2083 40.8594C31.8402 40.3212 33.3333 39.5486 34.6875 38.5417C33.3333 37.5347 31.8402 36.7622 30.2083 36.224C28.5763 35.6858 26.8402 35.4167 25 35.4167C23.1597 35.4167 21.4236 35.6858 19.7916 36.224C18.1597 36.7622 16.6666 37.5347 15.3125 38.5417C16.6666 39.5486 18.1597 40.3212 19.7916 40.8594C21.4236 41.3976 23.1597 41.6667 25 41.6667ZM25 22.9167C25.9027 22.9167 26.6493 22.6215 27.2395 22.0313C27.8298 21.441 28.125 20.6945 28.125 19.7917C28.125 18.8889 27.8298 18.1424 27.2395 17.5521C26.6493 16.9618 25.9027 16.6667 25 16.6667C24.0972 16.6667 23.3507 16.9618 22.7604 17.5521C22.1701 18.1424 21.875 18.8889 21.875 19.7917C21.875 20.6945 22.1701 21.441 22.7604 22.0313C23.3507 22.6215 24.0972 22.9167 25 22.9167Z" fill="white" fill-opacity="0.85"/>
</svg>
