<svg width="41" height="37" viewBox="0 0 41 37" fill="none" xmlns="http://www.w3.org/2000/svg">
<path d="M5.53741 31.7143V15.1964L2.21497 17.619L0 14.8L20.3039 0L40.6077 14.8L38.3927 17.575L35.0703 15.1964L20.3039 4.44881L9.22902 12.5095V28.1905H18.458C18.458 28.8071 18.5042 29.4091 18.5965 29.9964C18.6888 30.5837 18.8272 31.1563 19.0118 31.7143H5.53741ZM29.5329 37H22.1497V34.3571H24.7799C23.9801 33.5643 23.3417 32.6393 22.8649 31.5821C22.3881 30.525 22.1497 29.3944 22.1497 28.1905C22.1497 26.0762 22.8495 24.2115 24.2493 22.5964C25.649 20.9813 27.4102 19.9683 29.5329 19.5571V22.2881C28.1793 22.6698 27.0718 23.3966 26.2104 24.4685C25.3491 25.5403 24.9184 26.781 24.9184 28.1905C24.9184 29.0421 25.0799 29.8349 25.4029 30.569C25.7259 31.3032 26.1797 31.9492 26.7642 32.5071V29.9524H29.5329V37ZM33.2245 36.8238V34.0929C34.6088 33.6817 35.724 32.9403 36.57 31.8685C37.416 30.7966 37.839 29.5706 37.839 28.1905C37.839 27.3389 37.6775 26.546 37.3545 25.8119C37.0315 25.0778 36.5777 24.4317 35.9932 23.8738V26.4286H33.2245V19.381H40.6077V22.0238H37.9774C38.7773 22.8167 39.4156 23.7417 39.8925 24.7988C40.3693 25.856 40.6077 26.9865 40.6077 28.1905C40.6077 30.3048 39.9078 32.1694 38.5081 33.7845C37.1084 35.3996 35.3472 36.4127 33.2245 36.8238Z" fill="black"/>
</svg>
