<svg width="21" height="20" viewBox="0 0 21 20" fill="none" xmlns="http://www.w3.org/2000/svg">
<path d="M14.0001 1.65324H7.00012C6.53599 1.65324 6.09087 1.82742 5.76269 2.13747C5.4345 2.44751 5.25013 2.86802 5.25013 3.30648H13.1251V7.43958H17.5001V16.5324H5.25013C5.25013 16.9708 5.4345 17.3913 5.76269 17.7014C6.09087 18.0115 6.53599 18.1856 7.00012 18.1856H17.5001C17.9642 18.1856 18.4093 18.0115 18.7375 17.7014C19.0657 17.3913 19.2501 16.9708 19.2501 16.5324V6.61296L14.0001 1.65324Z" fill="black"/>
<path d="M9.90877 11.9763L11.1041 13.0788V13.6344H1.74987V13.0788L2.93575 11.9763V9.22482C2.87716 8.44689 3.10753 7.67402 3.58721 7.03929C4.06688 6.40455 4.76582 5.94769 5.56366 5.74738V5.37095C5.56366 5.15227 5.65562 4.94254 5.8193 4.78791C5.98299 4.63327 6.20499 4.5464 6.43647 4.5464C6.66795 4.5464 6.88995 4.63327 7.05364 4.78791C7.21733 4.94254 7.30928 5.15227 7.30928 5.37095V5.74738C8.1009 5.95442 8.79227 6.41387 9.26608 7.04773C9.73989 7.68159 9.96695 8.45077 9.90877 9.22482V11.9763Z" fill="black"/>
<path d="M7.23303 14.9696C7.0142 15.1763 6.71739 15.2925 6.4079 15.2925C6.09843 15.2925 5.80162 15.1763 5.58278 14.9696C5.36394 14.7629 5.241 14.4825 5.241 14.1901H7.57481C7.57481 14.4825 7.45187 14.7629 7.23303 14.9696Z" fill="black"/>
</svg>
