<svg width="21" height="20" viewBox="0 0 21 20" fill="none" xmlns="http://www.w3.org/2000/svg">
<path fill-rule="evenodd" clip-rule="evenodd" d="M8.74993 9.09283C9.23318 9.09283 9.62493 9.46292 9.62493 9.91945V14.0526C9.62493 14.5091 9.23318 14.8792 8.74993 14.8792C8.26669 14.8792 7.87494 14.5091 7.87494 14.0526V9.91945C7.87494 9.46292 8.26669 9.09283 8.74993 9.09283Z" fill="black"/>
<path fill-rule="evenodd" clip-rule="evenodd" d="M12.2502 9.09283C12.7334 9.09283 13.1252 9.46292 13.1252 9.91945V14.0526C13.1252 14.5091 12.7334 14.8792 12.2502 14.8792C11.7669 14.8792 11.3752 14.5091 11.3752 14.0526V9.91945C11.3752 9.46292 11.7669 9.09283 12.2502 9.09283Z" fill="black"/>
<path fill-rule="evenodd" clip-rule="evenodd" d="M2.62481 5.78635C2.62481 5.32982 3.01656 4.95973 3.49981 4.95973H17.4997C17.983 4.95973 18.3747 5.32982 18.3747 5.78635C18.3747 6.24288 17.983 6.61297 17.4997 6.61297H3.49981C3.01656 6.61297 2.62481 6.24288 2.62481 5.78635Z" fill="black"/>
<path fill-rule="evenodd" clip-rule="evenodd" d="M5.25019 7.43959C5.73343 7.43959 6.12518 7.80968 6.12518 8.26621V14.8792C6.12518 15.7923 6.90867 16.5324 7.87517 16.5324H13.1251C14.0917 16.5324 14.8751 15.7923 14.8751 14.8792V8.26621C14.8751 7.80968 15.2669 7.43959 15.7501 7.43959C16.2334 7.43959 16.6251 7.80968 16.6251 8.26621V14.8792C16.6251 16.7053 15.0582 18.1857 13.1251 18.1857H7.87517C5.9422 18.1857 4.37519 16.7053 4.37519 14.8792V8.26621C4.37519 7.80968 4.76694 7.43959 5.25019 7.43959Z" fill="black"/>
<path fill-rule="evenodd" clip-rule="evenodd" d="M9.62499 3.30648C9.14174 3.30648 8.74999 3.67657 8.74999 4.1331V4.95972H12.25V4.1331C12.25 3.67656 11.8582 3.30648 11.375 3.30648H9.62499ZM7 4.1331C7 2.76351 8.17525 1.65324 9.62499 1.65324H11.375C12.8248 1.65324 14 2.76352 14 4.1331V5.78634C14 6.24287 13.6082 6.61296 13.125 6.61296H7.875C7.39175 6.61296 7 6.24287 7 5.78634V4.1331Z" fill="black"/>
</svg>
