<svg width="36" height="38" viewBox="0 0 36 38" fill="none" xmlns="http://www.w3.org/2000/svg">
<path d="M16.3717 22.1667C17.6285 22.1667 18.6869 21.7093 19.5468 20.7944C20.4067 19.8796 20.8367 18.7537 20.8367 17.4167C20.8367 16.0796 20.4067 14.9537 19.5468 14.0389C18.6869 13.1241 17.6285 12.6667 16.3717 12.6667C15.1149 12.6667 14.0565 13.1241 13.1966 14.0389C12.3366 14.9537 11.9067 16.0796 11.9067 17.4167C11.9067 18.7537 12.3366 19.8796 13.1966 20.7944C14.0565 21.7093 15.1149 22.1667 16.3717 22.1667ZM25.9466 30.6111L20.7374 25.0694C20.076 25.5269 19.3731 25.8611 18.629 26.0722C17.8848 26.2833 17.1324 26.3889 16.3717 26.3889C14.0234 26.3889 12.0307 25.5181 10.3935 23.7764C8.75636 22.0347 7.93778 19.9148 7.93778 17.4167C7.93778 14.9185 8.75636 12.7986 10.3935 11.0569C12.0307 9.31528 14.0234 8.44444 16.3717 8.44444C18.7199 8.44444 20.7126 9.31528 22.3498 11.0569C23.987 12.7986 24.8056 14.9185 24.8056 17.4167C24.8056 18.2259 24.6981 19.0264 24.4831 19.8181C24.2681 20.6097 23.9456 21.3574 23.5157 22.0611L28.7744 27.6556L25.9466 30.6111ZM3.96889 38C2.87744 38 1.9431 37.5866 1.16586 36.7597C0.38862 35.9329 0 34.9389 0 33.7778V25.3333H3.96889V33.7778H11.9067V38H3.96889ZM23.8133 38V33.7778H31.7511V25.3333H35.72V33.7778C35.72 34.9389 35.3314 35.9329 34.5541 36.7597C33.7769 37.5866 32.8426 38 31.7511 38H23.8133ZM0 12.6667V4.22222C0 3.06111 0.38862 2.06713 1.16586 1.24028C1.9431 0.413426 2.87744 0 3.96889 0H11.9067V4.22222H3.96889V12.6667H0ZM31.7511 12.6667V4.22222H23.8133V0H31.7511C32.8426 0 33.7769 0.413426 34.5541 1.24028C35.3314 2.06713 35.72 3.06111 35.72 4.22222V12.6667H31.7511Z" fill="black"/>
</svg>
