<svg width="43" height="38" viewBox="0 0 43 38" fill="none" xmlns="http://www.w3.org/2000/svg">
<path d="M42.8362 19.0062H40.6859V20.9019H42.8362V19.0062Z" fill="black"/>
<path d="M42.8362 15.2025H40.6859V17.0981H42.8362V15.2025Z" fill="black"/>
<path d="M42.8362 11.3987H40.6859V13.2944H42.8362V11.3987Z" fill="black"/>
<path d="M42.8362 7.59499H40.6859V9.5031H42.8362V7.59499Z" fill="black"/>
<path d="M42.8362 3.79128H40.6859V5.69938H42.8362V3.79128Z" fill="black"/>
<path d="M42.8362 0H40.6859V1.89564H42.8362V0Z" fill="black"/>
<path d="M38.5496 19.0062H36.4134V20.9019H38.5496V19.0062Z" fill="black"/>
<path d="M38.5496 15.2025H36.4134V17.0981H38.5496V15.2025Z" fill="black"/>
<path d="M38.5496 11.3987H36.4134V13.2944H38.5496V11.3987Z" fill="black"/>
<path d="M38.5496 7.59499H36.4134V9.5031H38.5496V7.59499Z" fill="black"/>
<path d="M38.5496 3.79128H36.4134V5.69938H38.5496V3.79128Z" fill="black"/>
<path d="M38.5496 0H36.4134V1.89564H38.5496V0Z" fill="black"/>
<path d="M34.2629 19.0062H32.1268V20.9019H34.2629V19.0062Z" fill="black"/>
<path d="M34.2629 15.2025H32.1268V17.0981H34.2629V15.2025Z" fill="black"/>
<path d="M34.2629 11.3987H32.1268V13.2944H34.2629V11.3987Z" fill="black"/>
<path d="M34.2629 7.59499H32.1268V9.5031H34.2629V7.59499Z" fill="black"/>
<path d="M34.2629 3.79128H32.1268V5.69938H34.2629V3.79128Z" fill="black"/>
<path d="M34.2629 0H32.1268V1.89564H34.2629V0Z" fill="black"/>
<path d="M29.9768 15.2025H27.8406V17.0981H29.9768V15.2025Z" fill="black"/>
<path d="M29.9768 11.3987H27.8406V13.2944H29.9768V11.3987Z" fill="black"/>
<path d="M29.9768 7.59499H27.8406V9.5031H29.9768V7.59499Z" fill="black"/>
<path d="M29.9768 3.79128H27.8406V5.69938H29.9768V3.79128Z" fill="black"/>
<path d="M25.7047 11.3987H23.5544V13.2944H25.7047V11.3987Z" fill="black"/>
<path d="M25.7047 7.59499H23.5544V9.5031H25.7047V7.59499Z" fill="black"/>
<path d="M23.5544 17.0981H21.4182V36.1044H23.5544V17.0981Z" fill="black"/>
<path d="M21.4181 15.2025H19.2819V17.0981H21.4181V15.2025Z" fill="black"/>
<path d="M21.4181 36.1044H2.13625V38H21.4181V36.1044Z" fill="black"/>
<path d="M19.2817 3.79128H17.1315V5.69938H19.2817V3.79128Z" fill="black"/>
<path d="M17.1313 19.0062H6.42235V20.9019H4.28618V30.405H6.42235V32.3006H8.57258V30.405H10.7088V32.3006H12.8449V30.405H14.9952V32.3006H17.1313V30.405H19.2816V20.9019H17.1313V19.0062ZM10.7088 26.6075H6.42235V22.8037H10.7088V26.6075ZM17.1313 26.6075H12.8449V22.8037H17.1313V26.6075Z" fill="black"/>
<path d="M17.1314 1.89566H6.42242V3.7913H17.1314V1.89566Z" fill="black"/>
<path d="M19.2819 15.2025V13.2944H12.8452V11.3987H21.4181V9.5031H12.8452V7.59499H17.1317V5.69936H6.42266V7.59499H10.7091V9.5031H2.13625V11.3987H10.7091V13.2944H4.28648V15.2025H19.2819Z" fill="black"/>
<path d="M6.42235 3.79128H4.28618V5.69938H6.42235V3.79128Z" fill="black"/>
<path d="M4.28648 15.2025H2.13625V17.0981H4.28648V15.2025Z" fill="black"/>
<path d="M2.13618 17.0981H0V36.1044H2.13618V17.0981Z" fill="black"/>
<path d="M2.13618 11.3987H0V13.2944H2.13618V11.3987Z" fill="black"/>
</svg>
