<svg width="27" height="23" viewBox="0 0 27 23" fill="none" xmlns="http://www.w3.org/2000/svg">
<path d="M13.4773 0C20.9593 0 27.0024 5.07041 27 11.3465C26.9976 17.6255 20.9293 22.6629 13.3718 22.6568C6.05871 22.6518 -0.00838243 17.5262 8.69361e-06 11.3595C0.00719325 5.07642 6.02996 0 13.4773 0ZM4.98163 17.8422C6.20489 14.468 8.79634 12.3585 13.0375 12.2011C17.7328 12.0255 20.631 14.164 22.0304 17.8352C25.8307 14.5111 26.4142 8.56602 21.8075 4.54982C17.2189 0.54967 9.55951 0.609851 5.02717 4.70128C0.548722 8.74457 1.25798 14.6094 4.98163 17.8422ZM13.3838 21.0449C15.6242 21.0359 17.6106 20.5775 19.4449 19.6567C20.3399 19.2074 20.3507 19.1813 20.1686 18.3197C19.4845 15.0929 16.0124 13.0647 12.1809 13.6545C9.1965 14.1139 6.84945 16.4078 6.74881 18.9526C6.74163 19.1462 6.8123 19.2545 7.0004 19.3608C8.96286 20.4682 11.1242 21.0269 13.3838 21.0449Z" fill="black"/>
<path d="M13.5046 3.23678C16.1344 3.22976 18.3113 5.04227 18.3209 7.24697C18.3305 9.4938 16.1788 11.3254 13.5274 11.3264C10.8485 11.3284 8.68833 9.5299 8.67874 7.2911C8.67036 5.05732 10.8293 3.2438 13.5046 3.23678ZM16.392 7.29311C16.4016 5.96909 15.116 4.86774 13.543 4.8557C11.9292 4.84166 10.6136 5.92495 10.6077 7.27104C10.6017 8.59908 11.8836 9.69641 13.4555 9.70945C15.0681 9.72249 16.3812 8.64221 16.392 7.29311Z" fill="black"/>
</svg>
