<svg width="69" height="69" viewBox="0 0 69 69" fill="none" xmlns="http://www.w3.org/2000/svg">
<path d="M32.085 62.1L49.335 28.4625H37.26V6.9L20.01 40.5375H32.085V62.1ZM34.5 69C29.7275 69 25.2425 68.0944 21.045 66.2831C16.8475 64.4719 13.1962 62.0137 10.0913 58.9087C6.98625 55.8037 4.52812 52.1525 2.71688 47.955C0.905625 43.7575 0 39.2725 0 34.5C0 29.7275 0.905625 25.2425 2.71688 21.045C4.52812 16.8475 6.98625 13.1962 10.0913 10.0913C13.1962 6.98625 16.8475 4.52812 21.045 2.71688C25.2425 0.905625 29.7275 0 34.5 0C39.2725 0 43.7575 0.905625 47.955 2.71688C52.1525 4.52812 55.8037 6.98625 58.9087 10.0913C62.0137 13.1962 64.4719 16.8475 66.2831 21.045C68.0944 25.2425 69 29.7275 69 34.5C69 39.2725 68.0944 43.7575 66.2831 47.955C64.4719 52.1525 62.0137 55.8037 58.9087 58.9087C55.8037 62.0137 52.1525 64.4719 47.955 66.2831C43.7575 68.0944 39.2725 69 34.5 69ZM34.5 62.1C42.1475 62.1 48.6594 59.4119 54.0356 54.0356C59.4119 48.6594 62.1 42.1475 62.1 34.5C62.1 26.8525 59.4119 20.3406 54.0356 14.9644C48.6594 9.58813 42.1475 6.9 34.5 6.9C26.8525 6.9 20.3406 9.58813 14.9644 14.9644C9.58813 20.3406 6.9 26.8525 6.9 34.5C6.9 42.1475 9.58813 48.6594 14.9644 54.0356C20.3406 59.4119 26.8525 62.1 34.5 62.1Z" fill="#EFF308"/>
</svg>
