<svg width="27" height="25" viewBox="0 0 27 25" fill="none" xmlns="http://www.w3.org/2000/svg">
<path d="M24.0913 10.6456L14.3815 0.386915C14.2692 0.268284 14.1146 0.170667 13.9319 0.103053C13.7492 0.0354386 13.5443 0 13.3361 0C13.1278 0 12.9229 0.0354386 12.7403 0.103053C12.5576 0.170667 12.403 0.268284 12.2907 0.386915L2.58067 10.6457C0.897299 12.1904 -0.00741182 14.0602 4.57369e-05 15.9792C4.57369e-05 20.9532 5.98249 25 13.3361 25C20.6897 25 26.6721 20.9533 26.6721 15.9792C26.6796 14.0601 25.7748 12.1903 24.0913 10.6456ZM13.3361 23.3207C7.35155 23.3207 2.48261 20.0274 2.48261 15.9792C2.47626 14.4098 3.21971 12.881 4.60218 11.6206C4.61868 11.6055 4.6344 11.59 4.64935 11.5742L13.3361 2.39684L22.0225 11.5742C22.0374 11.5901 22.0531 11.6055 22.0697 11.6206C23.4523 12.881 24.1958 14.4098 24.1896 15.9792C24.1896 20.0273 19.3206 23.3207 13.3361 23.3207Z" fill="black"/>
</svg>
