<svg width="30" height="50" viewBox="0 0 30 50" fill="none" xmlns="http://www.w3.org/2000/svg">
<g clip-path="url(#clip0_229_154)">
<path d="M14.849 45.9732C10.4768 45.9732 6.90891 45.3877 4.14534 44.2167C1.38178 43.0457 0 41.5338 0 39.6812C0 38.4578 0.598085 37.3916 1.79425 36.4828C2.99042 35.574 4.64031 34.8574 6.74392 34.3331L8.16695 38.318C7.46575 38.4927 6.82641 38.7112 6.24895 38.9734C5.67149 39.2355 5.27964 39.4715 5.07341 39.6812C5.60962 40.2405 6.84704 40.7299 8.78566 41.1493C10.7243 41.5688 12.7454 41.7785 14.849 41.7785C16.9526 41.7785 18.984 41.5688 20.9433 41.1493C22.9025 40.7299 24.1502 40.2405 24.6865 39.6812C24.4802 39.4715 24.0884 39.2355 23.5109 38.9734C22.9335 38.7112 22.2941 38.4927 21.5929 38.318L23.0159 34.3331C25.1196 34.8574 26.7591 35.574 27.9347 36.4828C29.1102 37.3916 29.698 38.4578 29.698 39.6812C29.698 41.5338 28.3162 43.0457 25.5526 44.2167C22.7891 45.3877 19.2212 45.9732 14.849 45.9732ZM14.849 31.9736C15.5914 30.8201 16.3751 29.7627 17.2001 28.8014C18.025 27.8401 18.8294 26.9225 19.613 26.0487C21.1392 24.3708 22.356 22.859 23.2634 21.5132C24.1709 20.1674 24.6246 18.4983 24.6246 16.5059C24.6246 14.1988 23.6759 12.2413 21.7785 10.6334C19.8812 9.02545 17.5713 8.22148 14.849 8.22148C12.1267 8.22148 9.81684 9.02545 7.91946 10.6334C6.02209 12.2413 5.07341 14.1988 5.07341 16.5059C5.07341 18.4983 5.52713 20.1674 6.43457 21.5132C7.342 22.859 8.5588 24.3708 10.0849 26.0487C10.8686 26.9225 11.673 27.8401 12.4979 28.8014C13.3228 29.7627 14.1065 30.8201 14.849 31.9736ZM14.849 39.6812C14.3953 39.6812 13.9828 39.5676 13.6116 39.3404C13.2404 39.1132 12.9722 38.8073 12.8073 38.4228C11.8586 35.941 10.6624 33.8612 9.21875 32.1833C7.7751 30.5055 6.37269 28.8975 5.01154 27.3595C3.69163 25.8215 2.54702 24.231 1.57771 22.5881C0.608396 20.9452 0.123742 18.9178 0.123742 16.5059C0.123742 13.0103 1.54677 10.0566 4.39283 7.64472C7.23889 5.2328 10.7243 4.02685 14.849 4.02685C18.9737 4.02685 22.4591 5.2328 25.3052 7.64472C28.1512 10.0566 29.5743 13.0103 29.5743 16.5059C29.5743 18.9178 29.0999 20.9452 28.1512 22.5881C27.2025 24.231 26.0476 25.8215 24.6865 27.3595C23.3665 28.8975 21.9745 30.5055 20.5102 32.1833C19.0459 33.8612 17.8394 35.941 16.8907 38.4228C16.7257 38.8073 16.4576 39.1132 16.0864 39.3404C15.7152 39.5676 15.3027 39.6812 14.849 39.6812ZM14.849 20.9627C16.2926 20.9627 17.5301 20.5257 18.5612 19.6518C19.5924 18.778 20.108 17.7293 20.108 16.5059C20.108 15.2824 19.5924 14.2338 18.5612 13.3599C17.5301 12.486 16.2926 12.0491 14.849 12.0491C13.4053 12.0491 12.1679 12.486 11.1367 13.3599C10.1056 14.2338 9.58998 15.2824 9.58998 16.5059C9.58998 17.7293 10.1056 18.778 11.1367 19.6518C12.1679 20.5257 13.4053 20.9627 14.849 20.9627Z" fill="black"/>
</g>
<defs>
<clipPath id="clip0_229_154">
<rect width="29.5" height="49.6667" fill="white" transform="scale(1.00671)"/>
</clipPath>
</defs>
</svg>
