<svg width="21" height="20" viewBox="0 0 21 20" fill="none" xmlns="http://www.w3.org/2000/svg">
<g clip-path="url(#clip0_203_136)">
<path d="M19.0311 9.91944C19.0311 7.78191 18.1323 5.73194 16.5324 4.22048C14.9325 2.70902 12.7626 1.85989 10.4999 1.85989C8.23733 1.85989 6.06738 2.70902 4.46747 4.22048C2.86756 5.73194 1.96874 7.78191 1.96874 9.91944C1.96874 12.057 2.86756 14.1069 4.46747 15.6184C6.06738 17.1299 8.23733 17.979 10.4999 17.979C12.7626 17.979 14.9325 17.1299 16.5324 15.6184C18.1323 14.1069 19.0311 12.057 19.0311 9.91944ZM0 9.91944C0 7.28864 1.10624 4.76559 3.07536 2.90534C5.04448 1.04508 7.71519 0 10.4999 0C13.2847 0 15.9554 1.04508 17.9245 2.90534C19.8936 4.76559 20.9999 7.28864 20.9999 9.91944C20.9999 12.5502 19.8936 15.0733 17.9245 16.9335C15.9554 18.7938 13.2847 19.8389 10.4999 19.8389C7.71519 19.8389 5.04448 18.7938 3.07536 16.9335C1.10624 15.0733 0 12.5502 0 9.91944ZM9.18745 7.1296V12.7093C9.18745 13.2246 8.74859 13.6392 8.20308 13.6392C7.65758 13.6392 7.21871 13.2246 7.21871 12.7093V7.1296C7.21871 6.61425 7.65758 6.19965 8.20308 6.19965C8.74859 6.19965 9.18745 6.61425 9.18745 7.1296ZM13.7812 7.1296V12.7093C13.7812 13.2246 13.3423 13.6392 12.7968 13.6392C12.2513 13.6392 11.8124 13.2246 11.8124 12.7093V7.1296C11.8124 6.61425 12.2513 6.19965 12.7968 6.19965C13.3423 6.19965 13.7812 6.61425 13.7812 7.1296Z" fill="black"/>
</g>
<defs>
<clipPath id="clip0_203_136">
<rect width="20.2279" height="19.1096" fill="white" transform="scale(1.03816)"/>
</clipPath>
</defs>
</svg>
