<svg width="28" height="27" viewBox="0 0 28 27" fill="none" xmlns="http://www.w3.org/2000/svg">
<path d="M14 13.5C13.5889 13.5 13.2444 13.3706 12.9663 13.1119C12.6883 12.8531 12.5492 12.5325 12.5492 12.15C12.5492 11.7675 12.6883 11.4469 12.9663 11.1881C13.2444 10.9294 13.5889 10.8 14 10.8C14.4111 10.8 14.7556 10.9294 15.0337 11.1881C15.3117 11.4469 15.4508 11.7675 15.4508 12.15C15.4508 12.5325 15.3117 12.8531 15.0337 13.1119C14.7556 13.3706 14.4111 13.5 14 13.5ZM14 8.1C13.5889 8.1 13.2444 7.97063 12.9663 7.71188C12.6883 7.45313 12.5492 7.1325 12.5492 6.75C12.5492 6.3675 12.6883 6.04688 12.9663 5.78813C13.2444 5.52938 13.5889 5.4 14 5.4C14.4111 5.4 14.7556 5.52938 15.0337 5.78813C15.3117 6.04688 15.4508 6.3675 15.4508 6.75C15.4508 7.1325 15.3117 7.45313 15.0337 7.71188C14.7556 7.97063 14.4111 8.1 14 8.1ZM14 2.7C13.5889 2.7 13.2444 2.57063 12.9663 2.31188C12.6883 2.05313 12.5492 1.7325 12.5492 1.35C12.5492 0.9675 12.6883 0.646875 12.9663 0.388125C13.2444 0.129375 13.5889 0 14 0C14.4111 0 14.7556 0.129375 15.0337 0.388125C15.3117 0.646875 15.4508 0.9675 15.4508 1.35C15.4508 1.7325 15.3117 2.05313 15.0337 2.31188C14.7556 2.57063 14.4111 2.7 14 2.7ZM18.3523 16.2C17.9413 16.2 17.5967 16.0706 17.3187 15.8119C17.0406 15.5531 16.9016 15.2325 16.9016 14.85C16.9016 14.4675 17.0406 14.1469 17.3187 13.8881C17.5967 13.6294 17.9413 13.5 18.3523 13.5C18.7634 13.5 19.1079 13.6294 19.386 13.8881C19.6641 14.1469 19.8031 14.4675 19.8031 14.85C19.8031 15.2325 19.6641 15.5531 19.386 15.8119C19.1079 16.0706 18.7634 16.2 18.3523 16.2ZM22.4508 12.3525C22.0397 12.3525 21.6952 12.2231 21.4171 11.9644C21.139 11.7056 21 11.385 21 11.0025C21 10.62 21.139 10.2994 21.4171 10.0406C21.6952 9.78188 22.0397 9.6525 22.4508 9.6525C22.8618 9.6525 23.2064 9.78188 23.4845 10.0406C23.7625 10.2994 23.9016 10.62 23.9016 11.0025C23.9016 11.385 23.7625 11.7056 23.4845 11.9644C23.2064 12.2231 22.8618 12.3525 22.4508 12.3525ZM26.5492 8.5725C26.1382 8.5725 25.7936 8.44313 25.5155 8.18438C25.2375 7.92563 25.0984 7.605 25.0984 7.2225C25.0984 6.84 25.2375 6.51938 25.5155 6.26063C25.7936 6.00188 26.1382 5.8725 26.5492 5.8725C26.9603 5.8725 27.3048 6.00188 27.5829 6.26063C27.861 6.51938 28 6.84 28 7.2225C28 7.605 27.861 7.92563 27.5829 8.18438C27.3048 8.44313 26.9603 8.5725 26.5492 8.5725ZM9.64767 16.2C9.23662 16.2 8.89206 16.0706 8.61399 15.8119C8.33592 15.5531 8.19689 15.2325 8.19689 14.85C8.19689 14.4675 8.33592 14.1469 8.61399 13.8881C8.89206 13.6294 9.23662 13.5 9.64767 13.5C10.0587 13.5 10.4033 13.6294 10.6813 13.8881C10.9594 14.1469 11.0984 14.4675 11.0984 14.85C11.0984 15.2325 10.9594 15.5531 10.6813 15.8119C10.4033 16.0706 10.0587 16.2 9.64767 16.2ZM5.54922 12.3525C5.13817 12.3525 4.79361 12.2231 4.51554 11.9644C4.23748 11.7056 4.09845 11.385 4.09845 11.0025C4.09845 10.62 4.23748 10.2994 4.51554 10.0406C4.79361 9.78188 5.13817 9.6525 5.54922 9.6525C5.96028 9.6525 6.30484 9.78188 6.5829 10.0406C6.86097 10.2994 7 10.62 7 11.0025C7 11.385 6.86097 11.7056 6.5829 11.9644C6.30484 12.2231 5.96028 12.3525 5.54922 12.3525ZM1.45078 8.5725C1.03972 8.5725 0.695164 8.44313 0.417098 8.18438C0.139033 7.92563 0 7.605 0 7.2225C0 6.84 0.139033 6.51938 0.417098 6.26063C0.695164 6.00188 1.03972 5.8725 1.45078 5.8725C1.86183 5.8725 2.20639 6.00188 2.48446 6.26063C2.76252 6.51938 2.90155 6.84 2.90155 7.2225C2.90155 7.605 2.76252 7.92563 2.48446 8.18438C2.20639 8.44313 1.86183 8.5725 1.45078 8.5725ZM12.5492 27V21.6H6.74611V18.9H21.2539V21.6H15.4508V27H12.5492Z" fill="black"/>
</svg>
